#!OML:ASF H:\Terrain\Patient Classification 1\Walking\liu\liu.ASF
:FULLY-SPECIFIED
:DEGREES
49
root 12.891029 23.791349 -44.190750 10.001895 -15.260550 -4.777335
lowerback -10.162889 0.903525 0.167706
upperback -3.368670 1.077986 5.241915
thorax 2.156130 0.544811 5.402130
lowerneck -31.978951 -6.371010 -19.387051
upperneck 25.464151 -7.470465 21.582750
head 14.390265 -2.410695 9.800715
rclavicle 0.000000 0.000000
rhumerus -70.689598 29.668499 -142.055099
rradius 73.868248
rwrist -37.561199
rhand -45.704250 -43.184250
rfingers 10.687531
rthumb -5.656215 -88.103851
lclavicle 0.000000 0.000000
lhumerus -67.709549 -4.745790 135.094193
lradius 31.673248
lwrist -6.127275
lhand 6.069284 -24.621300
lfingers 10.687531
lthumb 44.189701 16.904249
rfemur 25.162949 6.528540 31.825798
rtibia 29.311050
rfoot 5.083665 0.374520
rtoes -22.736700
lfemur -59.426250 12.615915 -26.678101
ltibia 57.791397
lfoot -6.176400 10.087919
ltoes -3.063495
50
root 12.948391 23.820749 -43.960953 9.559230 -15.399751 -4.214985
lowerback -9.644054 0.906390 -0.118462
upperback -3.409170 1.117913 4.946325
thorax 1.824000 0.568128 5.250345
lowerneck -31.974300 -6.388860 -19.308899
upperneck 25.477501 -7.559610 21.739950
head 14.411819 -2.430450 9.833415
rclavicle 0.000000 0.000000
rhumerus -70.171654 28.713449 -141.946045
rradius 71.724899
rwrist -36.607349
rhand -45.167252 -41.663849
rfingers 10.687531
rthumb -5.137665 -86.592300
lclavicle 0.000000 0.000000
lhumerus -67.336952 -4.645365 134.527954
lradius 31.154701
lwrist -6.486975
lhand 6.551565 -24.017700
lfingers 10.687531
lthumb 44.650051 17.426250
rfemur 23.697449 5.483790 30.613800
rtibia 33.595650
rfoot 6.193095 0.523758
rtoes -23.398350
lfemur -58.064102 12.674355 -27.532499
ltibia 57.694504
lfoot -6.707385 9.958785
ltoes -3.241125
51
root 12.997710 23.848351 -43.747501 9.404625 -15.674551 -3.787770
lowerback -9.081480 1.039581 -0.434888
upperback -3.692385 1.334442 4.738095
thorax 1.204665 0.685171 5.215365
lowerneck -32.122650 -6.500970 -19.565100
upperneck 26.018101 -7.742400 22.037849
head 14.673480 -2.495235 9.987105
rclavicle 0.000000 0.000000
rhumerus -69.819748 27.467701 -141.645599
rradius 69.561897
rwrist -35.389198
rhand -43.793850 -39.699749
rfingers 10.687531
rthumb -3.811305 -84.646652
lclavicle 0.000000 0.000000
lhumerus -67.042351 -4.119180 133.783203
lradius 30.466049
lwrist -7.392105
lhand 6.960540 -24.222149
lfingers 10.687531
lthumb 45.040348 17.151451
rfemur 21.844051 4.581000 29.581650
rtibia 37.852650
rfoot 7.890315 0.091199
rtoes -22.376400
lfemur -57.016052 12.856725 -28.209000
ltibia 57.551849
lfoot -7.836165 9.854535
ltoes -2.935350
52
root 13.052296 23.891399 -43.522949 9.529380 -16.035751 -3.258225
lowerback -9.295425 1.265569 -0.696513
upperback -3.723735 1.651740 4.503120
thorax 1.271179 0.844132 5.144010
lowerneck -32.166302 -6.696855 -19.442551
upperneck 26.031149 -7.963815 21.654150
head 14.704334 -2.628750 9.786990
rclavicle 0.000000 -0.000000
rhumerus -69.448044 26.415899 -141.233856
rradius 68.178146
rwrist -34.836899
rhand -43.739853 -39.972450
rfingers 10.687531
rthumb -3.759195 -84.919952
lclavicle 0.000000 -0.000000
lhumerus -66.329102 -3.849210 133.267212
lradius 29.941048
lwrist -8.657655
lhand 6.370245 -24.948149
lfingers 10.687531
lthumb 44.476952 16.526550
rfemur 19.605301 3.760935 28.370102
rtibia 42.167999
rfoot 9.648165 -0.569059
rtoes -18.903900
lfemur -56.180550 12.870270 -28.987799
ltibia 57.360298
lfoot -8.997255 9.873554
ltoes -1.074942
53
root 13.103985 23.945702 -43.305901 9.736635 -16.408199 -2.864190
lowerback -9.619410 1.297544 -0.977215
upperback -3.642525 1.706295 4.450320
thorax 1.526760 0.869097 5.259510
lowerneck -32.568150 -6.741810 -19.306650
upperneck 25.993200 -7.928431 21.270901
head 14.740920 -2.629830 9.624870
rclavicle 0.000000 0.000000
rhumerus -68.410500 25.980900 -140.934448
rradius 66.487648
rwrist -34.501350
rhand -44.707500 -42.183449
rfingers 10.687531
rthumb -4.693650 -87.118652
lclavicle 0.000000 0.000000
lhumerus -65.681404 -3.655545 132.959702
lradius 29.837399
lwrist -9.386909
lhand 5.486550 -25.045502
lfingers 10.687531
lthumb 43.633350 16.577101
rfemur 17.153700 3.063690 27.417149
rtibia 46.508099
rfoot 11.018715 -1.208693
rtoes -17.600101
lfemur -55.447800 13.042589 -29.713800
ltibia 57.087448
lfoot -9.624855 9.872940
ltoes -1.082803
54
root 13.152571 23.995649 -43.100998 9.911730 -16.709700 -2.854920
lowerback -9.595816 1.158388 -0.948645
upperback -3.737205 1.520715 4.458180
thorax 1.428651 0.777810 5.236965
lowerneck -32.985298 -6.497085 -19.112850
upperneck 26.329350 -7.667310 21.414900
head 14.893801 -2.464935 9.703381
rclavicle -0.000000 -0.000000
rhumerus -67.025246 25.618500 -140.950958
rradius 63.893250
rwrist -33.628201
rhand -44.590351 -42.022800
rfingers 10.687531
rthumb -4.580520 -86.959648
lclavicle -0.000000 -0.000000
lhumerus -65.459099 -3.416025 132.453751
lradius 29.844000
lwrist -9.567090
lhand 4.980720 -25.175400
lfingers 10.687531
lthumb 43.150200 16.530001
rfemur 14.724255 2.477415 27.051601
rtibia 50.750397
rfoot 12.500490 -2.179455
rtoes -18.403351
lfemur -54.625648 13.259070 -30.009750
ltibia 56.752647
lfoot -10.448700 9.866235
ltoes -3.394275
55
root 13.201170 24.038849 -42.899551 9.734265 -17.013901 -2.550030
lowerback -9.164280 1.146430 -1.158570
upperback -3.889590 1.526265 4.303095
thorax 1.030722 0.786906 5.184915
lowerneck -32.818352 -6.349755 -18.710548
upperneck 26.379599 -7.604115 21.349499
head 14.858339 -2.420385 9.618975
rclavicle 0.000000 0.000000
rhumerus -66.365097 24.683998 -140.762543
rradius 61.793552
rwrist -32.410648
rhand -43.896450 -40.316551
rfingers 10.687531
rthumb -3.910410 -85.262253
lclavicle 0.000000 0.000000
lhumerus -65.264702 -3.295125 131.906250
lradius 29.625601
lwrist -10.164405
lhand 4.528905 -26.111099
lfingers 10.687531
lthumb 42.718498 15.667050
rfemur 12.678989 2.103390 26.516699
rtibia 54.880951
rfoot 14.007269 -3.650880
rtoes -16.727400
lfemur -53.408554 13.382956 -30.527550
ltibia 56.327400
lfoot -11.462880 9.893311
ltoes -4.668255
56
root 13.247505 24.079800 -42.700203 9.410940 -17.287350 -2.006340
lowerback -8.669880 1.231876 -1.642545
upperback -3.927075 1.672275 4.160580
thorax 0.700796 0.867238 5.309550
lowerneck -32.791500 -6.424065 -18.268801
upperneck 26.346901 -7.720530 20.783100
head 14.828205 -2.505870 9.308280
rclavicle -0.000000 0.000000
rhumerus -65.984695 23.550900 -140.111847
rradius 60.414448
rwrist -31.426800
rhand -43.346100 -39.682053
rfingers 10.687531
rthumb -3.378960 -84.633896
lclavicle -0.000000 0.000000
lhumerus -64.660347 -3.294900 131.623352
lradius 29.188198
lwrist -10.867741
lhand 3.814980 -27.239700
lfingers 10.687531
lthumb 42.036148 14.651415
rfemur 10.774320 1.747950 25.812000
rtibia 58.870346
rfoot 15.453899 -4.785525
rtoes -13.851211
lfemur -52.017002 13.467630 -31.265999
ltibia 55.752449
lfoot -12.073080 9.864360
ltoes -4.392900
57
root 13.299465 24.127651 -42.487049 9.223545 -17.816549 -1.422698
lowerback -8.791365 1.296537 -2.035410
upperback -3.665895 1.776990 4.028850
thorax 1.024431 0.914769 5.406945
lowerneck -33.745049 -6.445320 -17.991299
upperneck 26.930700 -7.660185 20.226749
head 15.171750 -2.486115 9.089445
rclavicle -0.000000 -0.000000
rhumerus -65.364296 22.797749 -139.393799
rradius 59.374203
rwrist -30.671249
rhand -42.309151 -37.979248
rfingers 10.687531
rthumb -2.377455 -82.940102
lclavicle -0.000000 -0.000000
lhumerus -63.537003 -3.317925 131.495102
lradius 28.934101
lwrist -10.674510
lhand 3.444840 -27.445351
lfingers 10.687531
lthumb 41.682301 14.503275
rfemur 8.693805 1.385159 24.882000
rtibia 62.656952
rfoot 16.878000 -5.584095
rtoes -12.299820
lfemur -50.590950 13.659689 -32.107048
ltibia 55.047752
lfoot -12.706590 9.989385
ltoes -4.462905
58
root 13.353870 24.176399 -42.266850 8.842665 -18.372900 -0.760828
lowerback -8.772555 1.315594 -2.431590
upperback -3.429645 1.823055 3.892155
thorax 1.248217 0.933542 5.494605
lowerneck -34.526249 -6.430725 -18.077700
upperneck 27.555450 -7.543605 20.069700
head 15.516300 -2.429880 9.094530
rclavicle 0.000000 0.000000
rhumerus -65.231247 22.475700 -138.874939
rradius 58.789047
rwrist -29.998650
rhand -41.751301 -36.480301
rfingers 10.687531
rthumb -1.838730 -81.444595
lclavicle 0.000000 0.000000
lhumerus -62.799900 -3.759270 131.695496
lradius 29.265900
lwrist -9.618555
lhand 3.774840 -26.483551
lfingers 10.687531
lthumb 41.997749 15.413850
rfemur 6.847651 1.101114 23.862900
rtibia 66.250504
rfoot 18.190050 -7.594830
rtoes -9.688125
lfemur -48.913799 13.737015 -32.997749
ltibia 54.288002
lfoot -13.449225 10.278990
ltoes -4.403280
59
root 13.401976 24.218552 -42.070503 8.522011 -18.592350 -0.528603
lowerback -8.367480 1.479413 -2.356050
upperback -3.410685 2.037105 3.814170
thorax 1.030107 1.043092 5.374740
lowerneck -34.166698 -6.623715 -18.691351
upperneck 27.209549 -7.714680 20.495701
head 15.384150 -2.517375 9.318766
rclavicle 0.000000 -0.000000
rhumerus -65.215195 21.985800 -138.360596
rradius 58.308899
rwrist -29.823750
rhand -42.730949 -37.272453
rfingers 10.687531
rthumb -2.784855 -82.229996
lclavicle 0.000000 -0.000000
lhumerus -62.469749 -5.010975 132.261902
lradius 29.770649
lwrist -8.733510
lhand 3.892410 -26.026051
lfingers 10.687531
lthumb 42.110100 15.853050
rfemur 5.063565 0.882385 23.600849
rtibia 69.684151
rfoot 18.707399 -10.554000
rtoes -7.398149
lfemur -47.390999 13.567230 -33.343800
ltibia 53.516701
lfoot -13.953014 10.399815
ltoes -3.906375
